<svg xmlns="http://www.w3.org/2000/svg" viewBox="0 0 460 460">
  <g id="basket_icon">
    <g>
      <path d="M73.57,193.54,171.34,62.59s38.42-10.47,33.18,26.19L114.6,210.13Z" fill="#fff"/>
      <path d="M25.56,182.19s-26.19,22.81,0,45.45h206V182.19Z" fill="#fff"/>
      <path d="M36.24,217.11l1.42,10.53L55.24,358.53s0,38.41,36.66,40.16H231.58V348.58a19.61,19.61,0,0,1-3.16-.49c-3.95-.92-8.43-3.14-13.43-7.4V237.94s5.59-6,13.43-7.61a17.84,17.84,0,0,1,3.16-.4V217.11ZM162.61,340.69s-12.23,17.88-33.17,0V237.94s16.88-18.05,33.17,0Z" fill="#fff"/>
      <path d="M386.43,194.26,288.66,63.32s-38.42-10.48-33.18,26.19L345.4,210.85Z" fill="#fff"/>
      <path d="M434.44,182.91s26.19,22.81,0,45.46h-206V182.91Z" fill="#fff"/>
      <path d="M228.42,217.83v12.5a17.84,17.84,0,0,1,3.16-.4c5.1-.21,10.88,1.69,16.59,8V340.69s-5.92,8.66-16.59,7.89a19.61,19.61,0,0,1-3.16-.49v51.32H368.1c36.66-1.75,36.66-40.16,36.66-40.16l17.58-130.88,1.42-10.54ZM332,340.69s-12.24,17.88-33.17,0V237.94s16.88-18.05,33.17,0Z" fill="#fff"/>
    </g>
  </g>
</svg>
