<svg xmlns="http://www.w3.org/2000/svg" viewBox="0 0 257 111">
  <g id="glas_7">
    <g id="skygge-2" data-name="skygge" opacity="0.3">
      <path d="M142.18-77s-6.3,22.59-.69,60.63c.21,1.43.44,2.89.69,4.37,1,6-2,9-4,10s-9,2-9,2l-12,1s-.79,0-2.18,0V-167h32.63s3.06,4.56,3.65,21c.39,10.86-.29,26.93-3.65,50.3Z" opacity="0.1"/>
    </g>
  </g>
  <g id="applepay_icon">
    <path d="M67.4,61.19,67,62c-.56,1.1-1.44,2.79-4,7a21.54,21.54,0,0,1-2,3,12.81,12.81,0,0,1-2,2,9.79,9.79,0,0,1-4,2c-1.61.34-3.08-.13-6-1-2.33-.69-1.9-.81-3-1a12.78,12.78,0,0,0-7,1,21.87,21.87,0,0,1-2,1,7.59,7.59,0,0,1-4,0,10.22,10.22,0,0,1-4-2c-6.21-4.9-9-16-9-16-1.42-5.64-2.35-9.32-1-14,.53-1.84,2.08-8.08,8-11s11.94-.44,13,0,1.46.8,2,1a3.73,3.73,0,0,0,2,0,21,21,0,0,0,3-1l1.84-.61c.11,0,.56-.2,1.15-.39h0a15.84,15.84,0,0,1,9,0,15.11,15.11,0,0,1,5,3c1.19,1,1.79,1.5,2,2,1.43,3.34-6.27,7.28-6.76,12.68C59,52.39,60.5,56.12,67.4,61" fill="#fff"/>
    <path d="M55,17C42,18,42.87,30.47,42.87,30.47S54,31,55,17" fill="#fff"/>
    <text transform="translate(77.51 75.34)" font-size="75" fill="#fff" font-family="Roboto-Medium, Roboto" font-weight="500" letter-spacing="-0.03em">P<tspan x="45.43" y="0" letter-spacing="-0.03em">ay</tspan></text>
  </g>
</svg>
