<svg xmlns="http://www.w3.org/2000/svg" viewBox="0 0 460 460">
  <g id="basket_icon">
    <path d="M348.24,55,336,72.5s-9,14-21-1a181.06,181.06,0,0,0-25-25.39s-11.9-9.39-22.47,0S237,82.59,230,78,189,46.5,189,46.5s-7-10-17,0-32,30-32,30-6,6-12,0-25.88-34.56-25.88-34.56-7.12-7.56-16.62,0V412.51s3.83,36.51,30.91,0l14.3-13.82s4.6-6.31,9.19,0S162.5,419,162.5,419s18,25,40,0,27-28.7,30-23.85,36.43,32.07,42.21,35S303.5,416,303.5,416l18.19-16.59s2.49-5.6,7.15,0S346.5,419,346.5,419s24,26,28,1V55S371,35,348.24,55ZM322.52,321.71H139.33c-9-12.4,0-22.59,0-22.59H322.52S333.71,309.31,322.52,321.71Zm0-74H139.33c-9-12.4,0-22.59,0-22.59H322.52S333.71,235.31,322.52,247.71Zm0-71.11H139.33c-9-12.41,0-22.6,0-22.6H322.52S333.71,164.19,322.52,176.6Z" fill="#fff"/>
  </g>
</svg>
